<svg xmlns="http://www.w3.org/2000/svg" width="20" height="20" viewBox="0 0 20 20">
    <g fill="none" fill-rule="evenodd">
        <g fill="#000">
            <path d="M10 1c4.97 0 9 4.03 9 9s-4.03 9-9 9-9-4.03-9-9 4.03-9 9-9zm0 1c-4.418 0-8 3.582-8 8s3.582 8 8 8 8-3.582 8-8-3.582-8-8-8zm.5 5.5c.276 0 .5.224.5.5l-.001.01v6.49H12.5c.276 0 .5.224.5.5 0 .245-.177.45-.41.492l-.09.008h-4c-.276 0-.5-.224-.5-.5 0-.245.177-.45.41-.492l.09-.008h1.499v-6H8.5c-.276 0-.5-.224-.5-.5 0-.245.177-.45.41-.492L8.5 7.5h2zM10 4c.552 0 1 .448 1 1s-.448 1-1 1-1-.448-1-1 .448-1 1-1z"/>
        </g>
    </g>
</svg>
